<svg xmlns="http://www.w3.org/2000/svg" width="1280" height="800" viewBox="0 0 1280 800"><rect x="0" y="0" width="1280" height="800" rx="0" fill="#0f1623"/><rect x="0" y="0" width="1280" height="56" rx="0" fill="#dfe3ea"/><circle cx="26" cy="28" r="7" fill="#ff5f57"/><circle cx="50" cy="28" r="7" fill="#febc2e"/><circle cx="74" cy="28" r="7" fill="#28c840"/><rect x="110" y="14" width="760" height="28" rx="14" fill="#fff" stroke="#c7cfdb" stroke-width="1"/><text x="128" y="33" font-family="DejaVu Sans, sans-serif" font-size="13" fill="#5b6473" font-weight="400" text-anchor="start">bip.um.sosnowiec.pl  ›  sprzedaż lokali  ›  przetarg ustny nieograniczony</text><text x="64" y="118" font-family="DejaVu Sans, sans-serif" font-size="26" fill="#1a2230" font-weight="700" text-anchor="start">Ogłoszenie o I przetargu ustnym nieograniczonym</text><text x="64" y="152" font-family="DejaVu Sans, sans-serif" font-size="16" fill="#55617a" font-weight="400" text-anchor="start">na sprzedaż lokalu mieszkalnego stanowiącego własność Gminy Sosnowiec</text><rect x="64" y="176" width="1152" height="1" rx="0" fill="#d7dde6"/><text x="64" y="232" font-family="DejaVu Sans, sans-serif" font-size="22" fill="#1a2230" font-weight="700" text-anchor="start">ul. Kaliskiej 14A/2</text><text x="64" y="262" font-family="DejaVu Sans, sans-serif" font-size="15" fill="#55617a" font-weight="400" text-anchor="start">lokal mieszkalny, II piętro, 2 pokoje</text><rect x="64" y="300" width="720" height="12" rx="6" fill="#e2e7ef"/><rect x="64" y="326" width="720" height="12" rx="6" fill="#e2e7ef"/><rect x="64" y="352" width="720" height="12" rx="6" fill="#e2e7ef"/><rect x="64" y="378" width="720" height="12" rx="6" fill="#e2e7ef"/><rect x="64" y="404" width="720" height="12" rx="6" fill="#e2e7ef"/><rect x="836" y="210" width="380" height="250" rx="14" fill="#1a2335" stroke="#2a3650" stroke-width="1"/><rect x="836" y="210" width="380" height="46" rx="14" fill="#141d2e"/><rect x="836" y="242" width="380" height="14" rx="0" fill="#141d2e"/><rect x="852" y="218" width="105.39999999999999" height="30" rx="15" fill="#1d6b62"/><circle cx="867" cy="233" r="5" fill="#fff" opacity="0.85"/><text x="879" y="238" font-family="DejaVu Sans, sans-serif" font-size="14" fill="#e7ecf5" font-weight="600" text-anchor="start">Sosnowiec</text><text x="1200" y="240" font-family="DejaVu Sans, sans-serif" font-size="12" fill="#9fb0c9" font-weight="400" text-anchor="end">przetargimiejskie</text><rect x="852" y="272" width="150" height="32" rx="8" fill="#24406b"/><text x="866" y="294" font-family="DejaVu Sans, sans-serif" font-size="15" fill="#bcd3f5" font-weight="600" text-anchor="start">● 1. przetarg</text><text x="1200" y="294" font-family="DejaVu Sans, sans-serif" font-size="14" fill="#9bd1c9" font-weight="400" text-anchor="end">nowa</text><text x="854" y="338" font-family="DejaVu Sans, sans-serif" font-size="12" fill="#9fb0c9" font-weight="400" text-anchor="start">cena wywoławcza</text><text x="854" y="364" font-family="DejaVu Sans, sans-serif" font-size="20" fill="#e7ecf5" font-weight="700" text-anchor="start">241 250 zł</text><text x="1046" y="338" font-family="DejaVu Sans, sans-serif" font-size="12" fill="#9fb0c9" font-weight="400" text-anchor="start">powierzchnia</text><text x="1046" y="364" font-family="DejaVu Sans, sans-serif" font-size="20" fill="#e7ecf5" font-weight="700" text-anchor="start">48,25 m²</text><text x="854" y="406" font-family="DejaVu Sans, sans-serif" font-size="12" fill="#9fb0c9" font-weight="400" text-anchor="start">cena za m²</text><text x="854" y="432" font-family="DejaVu Sans, sans-serif" font-size="20" fill="#9bd1c9" font-weight="700" text-anchor="start">5 000 zł/m²</text><text x="1046" y="406" font-family="DejaVu Sans, sans-serif" font-size="12" fill="#9fb0c9" font-weight="400" text-anchor="start">termin</text><text x="1046" y="432" font-family="DejaVu Sans, sans-serif" font-size="20" fill="#e7ecf5" font-weight="700" text-anchor="start">30.06.2026</text><rect x="0" y="708" width="1280" height="92" rx="0" fill="#0f1623"/><text x="64" y="750" font-family="DejaVu Sans, sans-serif" font-size="20" fill="#e7ecf5" font-weight="600" text-anchor="start">Widzisz od razu: która to runda, cena wywoławcza, m², zł/m² i termin — bez wchodzenia w PDF-y.</text></svg>