<svg xmlns="http://www.w3.org/2000/svg" width="1280" height="800" viewBox="0 0 1280 800"><rect x="0" y="0" width="1280" height="800" rx="0" fill="#0f1623"/><rect x="0" y="0" width="1280" height="56" rx="0" fill="#dfe3ea"/><circle cx="26" cy="28" r="7" fill="#ff5f57"/><circle cx="50" cy="28" r="7" fill="#febc2e"/><circle cx="74" cy="28" r="7" fill="#28c840"/><rect x="110" y="14" width="760" height="28" rx="14" fill="#fff" stroke="#c7cfdb" stroke-width="1"/><text x="128" y="33" font-family="DejaVu Sans, sans-serif" font-size="13" fill="#5b6473" font-weight="400" text-anchor="start">bip.um.sosnowiec.pl  ›  sprzedaż lokali  ›  przetarg ustny nieograniczony</text><text x="64" y="118" font-family="DejaVu Sans, sans-serif" font-size="26" fill="#3a4150" font-weight="700" text-anchor="start">Ogłoszenie o I przetargu ustnym nieograniczonym</text><text x="64" y="152" font-family="DejaVu Sans, sans-serif" font-size="16" fill="#39414f" font-weight="400" text-anchor="start">na sprzedaż lokalu mieszkalnego stanowiącego własność Gminy Sosnowiec</text><rect x="64" y="176" width="1152" height="1" rx="0" fill="#212a38"/><text x="64" y="232" font-family="DejaVu Sans, sans-serif" font-size="22" fill="#39414f" font-weight="700" text-anchor="start">ul. Kaliskiej 14A/2</text><text x="64" y="262" font-family="DejaVu Sans, sans-serif" font-size="15" fill="#39414f" font-weight="400" text-anchor="start">lokal mieszkalny, II piętro, 2 pokoje</text><rect x="64" y="300" width="720" height="12" rx="6" fill="#1b2434"/><rect x="64" y="326" width="720" height="12" rx="6" fill="#1b2434"/><rect x="64" y="352" width="720" height="12" rx="6" fill="#1b2434"/><rect x="64" y="378" width="720" height="12" rx="6" fill="#1b2434"/><rect x="64" y="404" width="720" height="12" rx="6" fill="#1b2434"/><rect x="836" y="196" width="380" height="290" rx="14" fill="#1a2335" stroke="#2a3650" stroke-width="1"/><rect x="836" y="196" width="380" height="46" rx="14" fill="#141d2e"/><rect x="836" y="228" width="380" height="14" rx="0" fill="#141d2e"/><rect x="852" y="206" width="90.35000000000001" height="23" rx="11.5" fill="#1f746a"/><circle cx="864" cy="217.5" r="3.5" fill="#fff" opacity="0.9"/><text x="872" y="222.18" font-family="DejaVu Sans, sans-serif" font-size="13" fill="#f3f6fb" font-weight="600" text-anchor="start">Sosnowiec</text><text x="1200" y="226" font-family="DejaVu Sans, sans-serif" font-size="12" fill="#9fb0c9" font-weight="400" text-anchor="end">przetargimiejskie</text><rect x="852" y="258" width="150" height="32" rx="8" fill="#24406b"/><text x="866" y="280" font-family="DejaVu Sans, sans-serif" font-size="15" fill="#bcd3f5" font-weight="600" text-anchor="start">● 1. przetarg</text><text x="1200" y="280" font-family="DejaVu Sans, sans-serif" font-size="14" fill="#9bd1c9" font-weight="400" text-anchor="end">nowa</text><text x="854" y="314" font-family="DejaVu Sans, sans-serif" font-size="12" fill="#9fb0c9" font-weight="400" text-anchor="start">cena wywoławcza</text><text x="854" y="340" font-family="DejaVu Sans, sans-serif" font-size="20" fill="#e7ecf5" font-weight="700" text-anchor="start">241 250 zł</text><text x="1046" y="314" font-family="DejaVu Sans, sans-serif" font-size="12" fill="#9fb0c9" font-weight="400" text-anchor="start">powierzchnia</text><text x="1046" y="340" font-family="DejaVu Sans, sans-serif" font-size="20" fill="#e7ecf5" font-weight="700" text-anchor="start">48,25 m²</text><text x="854" y="382" font-family="DejaVu Sans, sans-serif" font-size="12" fill="#9fb0c9" font-weight="400" text-anchor="start">cena za m²</text><text x="854" y="408" font-family="DejaVu Sans, sans-serif" font-size="20" fill="#9bd1c9" font-weight="700" text-anchor="start">5 000 zł/m²</text><text x="1046" y="382" font-family="DejaVu Sans, sans-serif" font-size="12" fill="#9fb0c9" font-weight="400" text-anchor="start">termin</text><text x="1046" y="408" font-family="DejaVu Sans, sans-serif" font-size="20" fill="#e7ecf5" font-weight="700" text-anchor="start">30.06.2026</text><rect x="852" y="442" width="348" height="30" rx="8" fill="#16352a" stroke="#235440" stroke-width="1"/><text x="866" y="462" font-family="DejaVu Sans, sans-serif" font-size="13" fill="#6cc497" font-weight="600" text-anchor="start">▼ 14% poniżej mediany</text><text x="1186" y="462" font-family="DejaVu Sans, sans-serif" font-size="11.5" fill="#9fb0c9" font-weight="400" text-anchor="end">mediana 5 800 zł/m²</text><rect x="0" y="708" width="1280" height="92" rx="0" fill="#0c121d"/><text x="64" y="750" font-family="DejaVu Sans, sans-serif" font-size="20" fill="#e7ecf5" font-weight="600" text-anchor="start">Widzisz od razu: runda, cena, m², zł/m², termin — i czy to okazja względem mediany miasta.</text><text x="64" y="774" font-family="DejaVu Sans, sans-serif" font-size="14" fill="#9fb0c9" font-weight="400" text-anchor="start">Wszystko doklejone wprost do ogłoszenia BIP — bez otwierania PDF-ów.</text></svg>