<svg xmlns="http://www.w3.org/2000/svg" width="1280" height="800" viewBox="0 0 1280 800"><rect x="0" y="0" width="1280" height="800" rx="0" fill="#0f1623"/><rect x="0" y="0" width="1280" height="800" rx="0" fill="#0f1623"/><rect x="380" y="70" width="520" height="660" rx="16" fill="#1a2335" stroke="#2a3650" stroke-width="1"/><rect x="380" y="70" width="520" height="64" rx="16" fill="#141d2e"/><rect x="380" y="110" width="520" height="24" rx="0" fill="#141d2e"/><text x="402" y="110" font-family="DejaVu Sans, sans-serif" font-size="20" fill="#e7ecf5" font-weight="800" text-anchor="start">przetargi</text><text x="498" y="110" font-family="DejaVu Sans, sans-serif" font-size="20" fill="#7aa2e3" font-weight="800" text-anchor="start">miejskie</text><text x="878" y="110" font-family="DejaVu Sans, sans-serif" font-size="12" fill="#9fb0c9" font-weight="400" text-anchor="end">v1.11.1</text><rect x="402" y="148" width="103" height="30" rx="15" fill="#7aa2e3" stroke="#7aa2e3" stroke-width="1"/><text x="413" y="168" font-family="DejaVu Sans, sans-serif" font-size="13" fill="#0b1220" font-weight="600" text-anchor="start">Wszystkie</text><rect x="515" y="148" width="121" height="30" rx="15" fill="transparent" stroke="#2a3650" stroke-width="1"/><text x="526" y="168" font-family="DejaVu Sans, sans-serif" font-size="13" fill="#9fb0c9" font-weight="600" text-anchor="start">Obserwowane</text><rect x="646" y="148" width="94" height="30" rx="15" fill="transparent" stroke="#2a3650" stroke-width="1"/><text x="657" y="168" font-family="DejaVu Sans, sans-serif" font-size="13" fill="#9fb0c9" font-weight="600" text-anchor="start">Aktualne</text><rect x="398" y="196" width="484" height="76" rx="10" fill="#141d2e" stroke="#2a3650" stroke-width="1"/><rect x="410" y="208" width="88.19999999999999" height="30" rx="15" fill="#2a4d8f"/><circle cx="425" cy="223" r="5" fill="#fff" opacity="0.85"/><text x="437" y="228" font-family="DejaVu Sans, sans-serif" font-size="14" fill="#e7ecf5" font-weight="600" text-anchor="start">Gliwice</text><text x="870" y="226" font-family="DejaVu Sans, sans-serif" font-size="13" fill="#e0a96d" font-weight="600" text-anchor="end">2. przetarg</text><text x="410" y="254" font-family="DejaVu Sans, sans-serif" font-size="15" fill="#e7ecf5" font-weight="600" text-anchor="start">Zygmunta Starego 29/4</text><text x="870" y="254" font-family="DejaVu Sans, sans-serif" font-size="13" fill="#9fb0c9" font-weight="400" text-anchor="end">461 430 zł · 86,79 m² · 5 316 zł/m²</text><rect x="398" y="282" width="484" height="76" rx="10" fill="#141d2e" stroke="#2a3650" stroke-width="1"/><rect x="410" y="294" width="71" height="30" rx="15" fill="#1f6b3a"/><circle cx="425" cy="309" r="5" fill="#fff" opacity="0.85"/><text x="437" y="314" font-family="DejaVu Sans, sans-serif" font-size="14" fill="#e7ecf5" font-weight="600" text-anchor="start">Bytom</text><text x="870" y="312" font-family="DejaVu Sans, sans-serif" font-size="13" fill="#e0a96d" font-weight="600" text-anchor="end">3. przetarg</text><text x="410" y="340" font-family="DejaVu Sans, sans-serif" font-size="15" fill="#e7ecf5" font-weight="600" text-anchor="start">Dworcowa 5/18</text><text x="870" y="340" font-family="DejaVu Sans, sans-serif" font-size="13" fill="#9fb0c9" font-weight="400" text-anchor="end">82 500 zł · 79,5 m² · 1 038 zł/m²</text><rect x="398" y="368" width="484" height="76" rx="10" fill="#141d2e" stroke="#2a3650" stroke-width="1"/><rect x="410" y="380" width="79.6" height="30" rx="15" fill="#5b3a8a"/><circle cx="425" cy="395" r="5" fill="#fff" opacity="0.85"/><text x="437" y="400" font-family="DejaVu Sans, sans-serif" font-size="14" fill="#e7ecf5" font-weight="600" text-anchor="start">Rybnik</text><text x="870" y="398" font-family="DejaVu Sans, sans-serif" font-size="13" fill="#9bd1c9" font-weight="600" text-anchor="end">nowa</text><text x="410" y="426" font-family="DejaVu Sans, sans-serif" font-size="15" fill="#e7ecf5" font-weight="600" text-anchor="start">A. Zgrzebnioka 7B/6</text><text x="870" y="426" font-family="DejaVu Sans, sans-serif" font-size="13" fill="#9fb0c9" font-weight="400" text-anchor="end">180 000 zł · 35 m² · 5 143 zł/m²</text><rect x="398" y="454" width="484" height="76" rx="10" fill="#141d2e" stroke="#2a3650" stroke-width="1"/><rect x="410" y="466" width="105.39999999999999" height="30" rx="15" fill="#1d6b62"/><circle cx="425" cy="481" r="5" fill="#fff" opacity="0.85"/><text x="437" y="486" font-family="DejaVu Sans, sans-serif" font-size="14" fill="#e7ecf5" font-weight="600" text-anchor="start">Sosnowiec</text><text x="870" y="484" font-family="DejaVu Sans, sans-serif" font-size="13" fill="#9bd1c9" font-weight="600" text-anchor="end">nowa</text><text x="410" y="512" font-family="DejaVu Sans, sans-serif" font-size="15" fill="#e7ecf5" font-weight="600" text-anchor="start">Kaliskiej 14A/2</text><text x="870" y="512" font-family="DejaVu Sans, sans-serif" font-size="13" fill="#9fb0c9" font-weight="400" text-anchor="end">241 250 zł · 48,25 m² · 5 000 zł/m²</text><rect x="398" y="540" width="484" height="76" rx="10" fill="#141d2e" stroke="#2a3650" stroke-width="1"/><rect x="410" y="552" width="96.8" height="30" rx="15" fill="#8a2a2a"/><circle cx="425" cy="567" r="5" fill="#fff" opacity="0.85"/><text x="437" y="572" font-family="DejaVu Sans, sans-serif" font-size="14" fill="#e7ecf5" font-weight="600" text-anchor="start">Katowice</text><text x="870" y="570" font-family="DejaVu Sans, sans-serif" font-size="13" fill="#e0a96d" font-weight="600" text-anchor="end">2. przetarg</text><text x="410" y="598" font-family="DejaVu Sans, sans-serif" font-size="15" fill="#e7ecf5" font-weight="600" text-anchor="start">Mariacka 12/5</text><text x="870" y="598" font-family="DejaVu Sans, sans-serif" font-size="13" fill="#9fb0c9" font-weight="400" text-anchor="end">318 000 zł · 61,2 m² · 5 196 zł/m²</text><rect x="398" y="626" width="484" height="76" rx="10" fill="#141d2e" stroke="#2a3650" stroke-width="1"/><rect x="410" y="638" width="79.6" height="30" rx="15" fill="#8a531f"/><circle cx="425" cy="653" r="5" fill="#fff" opacity="0.85"/><text x="437" y="658" font-family="DejaVu Sans, sans-serif" font-size="14" fill="#e7ecf5" font-weight="600" text-anchor="start">Zabrze</text><text x="870" y="656" font-family="DejaVu Sans, sans-serif" font-size="13" fill="#9bd1c9" font-weight="600" text-anchor="end">nowa</text><text x="410" y="684" font-family="DejaVu Sans, sans-serif" font-size="15" fill="#e7ecf5" font-weight="600" text-anchor="start">Wolności 284/3</text><text x="870" y="684" font-family="DejaVu Sans, sans-serif" font-size="13" fill="#9fb0c9" font-weight="400" text-anchor="end">149 000 zł · 54,0 m² · 2 759 zł/m²</text></svg>