<svg xmlns="http://www.w3.org/2000/svg" width="1280" height="800" viewBox="0 0 1280 800"><rect x="0" y="0" width="1280" height="800" rx="0" fill="#0f1623"/><text x="36" y="48" font-family="DejaVu Sans, sans-serif" font-size="25" fill="#e7ecf5" font-weight="700" text-anchor="start">Raporty rynku</text><text x="36" y="74" font-family="DejaVu Sans, sans-serif" font-size="14" fill="#9fb0c9" font-weight="400" text-anchor="start">Skuteczność sprzedaży, mediany zł/m² i okazje po obniżce — Górny Śląsk</text><rect x="36" y="96" width="170" height="32" rx="8" fill="#121a28" stroke="#2a3650" stroke-width="1"/><text x="48" y="117" font-family="DejaVu Sans, sans-serif" font-size="12" fill="#9fb0c9" font-weight="400" text-anchor="start">Miasto: </text><text x="100.80000000000001" y="117" font-family="DejaVu Sans, sans-serif" font-size="12" fill="#e7ecf5" font-weight="600" text-anchor="start">wszystkie</text><text x="192" y="117" font-family="DejaVu Sans, sans-serif" font-size="10" fill="#9fb0c9" font-weight="400" text-anchor="end">▾</text><rect x="218" y="96" width="180" height="32" rx="8" fill="#121a28" stroke="#2a3650" stroke-width="1"/><text x="230" y="117" font-family="DejaVu Sans, sans-serif" font-size="12" fill="#9fb0c9" font-weight="400" text-anchor="start">Rodzaj: </text><text x="282.8" y="117" font-family="DejaVu Sans, sans-serif" font-size="12" fill="#e7ecf5" font-weight="600" text-anchor="start">mieszkania</text><text x="384" y="117" font-family="DejaVu Sans, sans-serif" font-size="10" fill="#9fb0c9" font-weight="400" text-anchor="end">▾</text><rect x="410" y="96" width="170" height="32" rx="8" fill="#121a28" stroke="#2a3650" stroke-width="1"/><text x="422" y="117" font-family="DejaVu Sans, sans-serif" font-size="12" fill="#9fb0c9" font-weight="400" text-anchor="start">Okres: </text><text x="468.2" y="117" font-family="DejaVu Sans, sans-serif" font-size="12" fill="#e7ecf5" font-weight="600" text-anchor="start">12 miesięcy</text><text x="566" y="117" font-family="DejaVu Sans, sans-serif" font-size="10" fill="#9fb0c9" font-weight="400" text-anchor="end">▾</text><rect x="1094" y="96" width="70" height="32" rx="8" fill="#121a28" stroke="#2a3650" stroke-width="1"/><text x="1129" y="117" font-family="DejaVu Sans, sans-serif" font-size="12" fill="#7ea6e6" font-weight="400" text-anchor="middle">⤓ CSV</text><rect x="1170" y="96" width="74" height="32" rx="8" fill="#24406b"/><text x="1207" y="117" font-family="DejaVu Sans, sans-serif" font-size="12" fill="#bcd3f5" font-weight="600" text-anchor="middle">⤓ PDF</text><rect x="36" y="148" width="291.5" height="78" rx="10" fill="#141d2c" stroke="#2a3650" stroke-width="1"/><text x="54" y="186" font-family="DejaVu Sans, sans-serif" font-size="25" fill="#6cc497" font-weight="700" text-anchor="start">76</text><text x="54" y="209" font-family="DejaVu Sans, sans-serif" font-size="12" fill="#9fb0c9" font-weight="400" text-anchor="start">mieszkań sprzedanych</text><rect x="341.5" y="148" width="291.5" height="78" rx="10" fill="#141d2c" stroke="#2a3650" stroke-width="1"/><text x="359.5" y="186" font-family="DejaVu Sans, sans-serif" font-size="25" fill="#9bd1c9" font-weight="700" text-anchor="start">+3,8%</text><text x="359.5" y="209" font-family="DejaVu Sans, sans-serif" font-size="12" fill="#9fb0c9" font-weight="400" text-anchor="start">mediana ceny końcowej vs wyw.</text><rect x="647" y="148" width="291.5" height="78" rx="10" fill="#141d2c" stroke="#2a3650" stroke-width="1"/><text x="665" y="186" font-family="DejaVu Sans, sans-serif" font-size="25" fill="#7ea6e6" font-weight="700" text-anchor="start">4 920 zł/m²</text><text x="665" y="209" font-family="DejaVu Sans, sans-serif" font-size="12" fill="#9fb0c9" font-weight="400" text-anchor="start">mediana ceny uzyskanej</text><rect x="952.5" y="148" width="291.5" height="78" rx="10" fill="#141d2c" stroke="#2a3650" stroke-width="1"/><text x="970.5" y="186" font-family="DejaVu Sans, sans-serif" font-size="25" fill="#d8b06a" font-weight="700" text-anchor="start">31</text><text x="970.5" y="209" font-family="DejaVu Sans, sans-serif" font-size="12" fill="#9fb0c9" font-weight="400" text-anchor="start">okazji po obniżce</text><text x="36" y="252" font-family="DejaVu Sans, sans-serif" font-size="16" fill="#e7ecf5" font-weight="700" text-anchor="start">Mediany zł/m² — mieszkania sprzedane</text><text x="36" y="272" font-family="DejaVu Sans, sans-serif" font-size="12" fill="#9fb0c9" font-weight="400" text-anchor="start">Podstawa „deal score" w rozszerzeniu</text><rect x="36" y="296" width="78.80000000000001" height="22" rx="11" fill="#9c3030"/><circle cx="48" cy="307" r="3.5" fill="#fff" opacity="0.9"/><text x="56" y="311.32" font-family="DejaVu Sans, sans-serif" font-size="12" fill="#f3f6fb" font-weight="600" text-anchor="start">Katowice</text><rect x="186" y="292" width="410" height="30" rx="5" fill="#101826"/><rect x="186" y="292" width="395" height="30" rx="5" fill="#9c3030"/><text x="571" y="312" font-family="DejaVu Sans, sans-serif" font-size="12.5" fill="#0d1420" font-weight="700" text-anchor="end">5 400 zł/m²</text><rect x="36" y="338" width="111.80000000000001" height="22" rx="11" fill="#a23271"/><circle cx="48" cy="349" r="3.5" fill="#fff" opacity="0.9"/><text x="56" y="353.32" font-family="DejaVu Sans, sans-serif" font-size="12" fill="#f3f6fb" font-weight="600" text-anchor="start">Bielsko-Biała</text><rect x="186" y="334" width="410" height="30" rx="5" fill="#101826"/><rect x="186" y="334" width="373" height="30" rx="5" fill="#a23271"/><text x="549" y="354" font-family="DejaVu Sans, sans-serif" font-size="12.5" fill="#0d1420" font-weight="700" text-anchor="end">5 100 zł/m²</text><rect x="36" y="380" width="72.2" height="22" rx="11" fill="#2f5396"/><circle cx="48" cy="391" r="3.5" fill="#fff" opacity="0.9"/><text x="56" y="395.32" font-family="DejaVu Sans, sans-serif" font-size="12" fill="#f3f6fb" font-weight="600" text-anchor="start">Gliwice</text><rect x="186" y="376" width="410" height="30" rx="5" fill="#101826"/><rect x="186" y="376" width="360" height="30" rx="5" fill="#2f5396"/><text x="536" y="396" font-family="DejaVu Sans, sans-serif" font-size="12.5" fill="#0d1420" font-weight="700" text-anchor="end">4 920 zł/m²</text><rect x="36" y="422" width="65.6" height="22" rx="11" fill="#63408f"/><circle cx="48" cy="433" r="3.5" fill="#fff" opacity="0.9"/><text x="56" y="437.32" font-family="DejaVu Sans, sans-serif" font-size="12" fill="#f3f6fb" font-weight="600" text-anchor="start">Rybnik</text><rect x="186" y="418" width="410" height="30" rx="5" fill="#101826"/><rect x="186" y="418" width="300" height="30" rx="5" fill="#63408f"/><text x="476" y="438" font-family="DejaVu Sans, sans-serif" font-size="12.5" fill="#0d1420" font-weight="700" text-anchor="end">4 100 zł/m²</text><rect x="36" y="464" width="85.4" height="22" rx="11" fill="#1f746a"/><circle cx="48" cy="475" r="3.5" fill="#fff" opacity="0.9"/><text x="56" y="479.32" font-family="DejaVu Sans, sans-serif" font-size="12" fill="#f3f6fb" font-weight="600" text-anchor="start">Sosnowiec</text><rect x="186" y="460" width="410" height="30" rx="5" fill="#101826"/><rect x="186" y="460" width="278" height="30" rx="5" fill="#1f746a"/><text x="454" y="480" font-family="DejaVu Sans, sans-serif" font-size="12.5" fill="#0d1420" font-weight="700" text-anchor="end">3 800 zł/m²</text><rect x="36" y="506" width="85.4" height="22" rx="11" fill="#246798"/><circle cx="48" cy="517" r="3.5" fill="#fff" opacity="0.9"/><text x="56" y="521.32" font-family="DejaVu Sans, sans-serif" font-size="12" fill="#f3f6fb" font-weight="600" text-anchor="start">Mysłowice</text><rect x="186" y="502" width="410" height="30" rx="5" fill="#101826"/><rect x="186" y="502" width="234" height="30" rx="5" fill="#246798"/><text x="410" y="522" font-family="DejaVu Sans, sans-serif" font-size="12.5" fill="#0d1420" font-weight="700" text-anchor="end">3 200 zł/m²</text><rect x="36" y="548" width="65.6" height="22" rx="11" fill="#8f5a24"/><circle cx="48" cy="559" r="3.5" fill="#fff" opacity="0.9"/><text x="56" y="563.32" font-family="DejaVu Sans, sans-serif" font-size="12" fill="#f3f6fb" font-weight="600" text-anchor="start">Zabrze</text><rect x="186" y="544" width="410" height="30" rx="5" fill="#101826"/><rect x="186" y="544" width="190" height="30" rx="5" fill="#8f5a24"/><text x="366" y="564" font-family="DejaVu Sans, sans-serif" font-size="12.5" fill="#0d1420" font-weight="700" text-anchor="end">2 600 zł/m²</text><rect x="36" y="590" width="118.4" height="22" rx="11" fill="#65741f"/><circle cx="48" cy="601" r="3.5" fill="#fff" opacity="0.9"/><text x="56" y="605.32" font-family="DejaVu Sans, sans-serif" font-size="12" fill="#f3f6fb" font-weight="600" text-anchor="start">Świętochłowice</text><rect x="186" y="586" width="410" height="30" rx="5" fill="#101826"/><rect x="186" y="586" width="154" height="30" rx="5" fill="#65741f"/><text x="330" y="606" font-family="DejaVu Sans, sans-serif" font-size="12.5" fill="#0d1420" font-weight="700" text-anchor="end">2 100 zł/m²</text><rect x="36" y="632" width="59" height="22" rx="11" fill="#23713f"/><circle cx="48" cy="643" r="3.5" fill="#fff" opacity="0.9"/><text x="56" y="647.32" font-family="DejaVu Sans, sans-serif" font-size="12" fill="#f3f6fb" font-weight="600" text-anchor="start">Bytom</text><rect x="186" y="628" width="410" height="30" rx="5" fill="#101826"/><rect x="186" y="628" width="139" height="30" rx="5" fill="#23713f"/><text x="315" y="648" font-family="DejaVu Sans, sans-serif" font-size="12.5" fill="#0d1420" font-weight="700" text-anchor="end">1 900 zł/m²</text><text x="620" y="252" font-family="DejaVu Sans, sans-serif" font-size="16" fill="#e7ecf5" font-weight="700" text-anchor="start">Tablica okazji — aktualne aukcje po obniżce</text><text x="620" y="272" font-family="DejaVu Sans, sans-serif" font-size="12" fill="#9fb0c9" font-weight="400" text-anchor="start">Spadek ceny wywoławczej względem 1. podejścia</text><rect x="620" y="292" width="624" height="432" rx="10" fill="#141d2c" stroke="#2a3650" stroke-width="1"/><text x="636" y="318" font-family="DejaVu Sans, sans-serif" font-size="10.5" fill="#6b7a93" font-weight="600" text-anchor="start" letter-spacing="0.4">NIERUCHOMOŚĆ</text><text x="1044" y="318" font-family="DejaVu Sans, sans-serif" font-size="10.5" fill="#6b7a93" font-weight="600" text-anchor="end" letter-spacing="0.4">TERAZ</text><text x="1134" y="318" font-family="DejaVu Sans, sans-serif" font-size="10.5" fill="#6b7a93" font-weight="600" text-anchor="end" letter-spacing="0.4">1. RUNDA</text><text x="1228" y="318" font-family="DejaVu Sans, sans-serif" font-size="10.5" fill="#6b7a93" font-weight="600" text-anchor="end" letter-spacing="0.4">SPADEK</text><rect x="632" y="328" width="600" height="1" rx="0" fill="#212c42"/><rect x="636" y="346" width="56.25" height="21" rx="10.5" fill="#23713f"/><circle cx="648" cy="356.5" r="3.5" fill="#fff" opacity="0.9"/><text x="656" y="360.46" font-family="DejaVu Sans, sans-serif" font-size="11" fill="#f3f6fb" font-weight="600" text-anchor="start">Bytom</text><text x="636" y="384" font-family="DejaVu Sans, sans-serif" font-size="12.5" fill="#e7ecf5" font-weight="600" text-anchor="start">Dworcowa 5/18</text><text x="1044" y="372" font-family="DejaVu Sans, sans-serif" font-size="12.5" fill="#e7ecf5" font-weight="700" text-anchor="end">82 500 zł</text><text x="1134" y="372" font-family="DejaVu Sans, sans-serif" font-size="12" fill="#6b7a93" font-weight="400" text-anchor="end">110 000 zł</text><rect x="1168" y="356" width="60" height="24" rx="12" fill="#16352a"/><text x="1198" y="372" font-family="DejaVu Sans, sans-serif" font-size="12" fill="#6cc497" font-weight="700" text-anchor="middle">−25%</text><rect x="628" y="394" width="608" height="52" rx="6" fill="#161f30"/><rect x="636" y="398" width="62.300000000000004" height="21" rx="10.5" fill="#8f5a24"/><circle cx="648" cy="408.5" r="3.5" fill="#fff" opacity="0.9"/><text x="656" y="412.46" font-family="DejaVu Sans, sans-serif" font-size="11" fill="#f3f6fb" font-weight="600" text-anchor="start">Zabrze</text><text x="636" y="436" font-family="DejaVu Sans, sans-serif" font-size="12.5" fill="#e7ecf5" font-weight="600" text-anchor="start">3 Maja 17/9</text><text x="1044" y="424" font-family="DejaVu Sans, sans-serif" font-size="12.5" fill="#e7ecf5" font-weight="700" text-anchor="end">171 000 zł</text><text x="1134" y="424" font-family="DejaVu Sans, sans-serif" font-size="12" fill="#6b7a93" font-weight="400" text-anchor="end">205 000 zł</text><rect x="1168" y="408" width="60" height="24" rx="12" fill="#22304a"/><text x="1198" y="424" font-family="DejaVu Sans, sans-serif" font-size="12" fill="#7ea6e6" font-weight="700" text-anchor="middle">−17%</text><rect x="636" y="450" width="80.45" height="21" rx="10.5" fill="#1f746a"/><circle cx="648" cy="460.5" r="3.5" fill="#fff" opacity="0.9"/><text x="656" y="464.46" font-family="DejaVu Sans, sans-serif" font-size="11" fill="#f3f6fb" font-weight="600" text-anchor="start">Sosnowiec</text><text x="636" y="488" font-family="DejaVu Sans, sans-serif" font-size="12.5" fill="#e7ecf5" font-weight="600" text-anchor="start">Targowa 12</text><text x="1044" y="476" font-family="DejaVu Sans, sans-serif" font-size="12.5" fill="#e7ecf5" font-weight="700" text-anchor="end">8 867 000 zł</text><text x="1134" y="476" font-family="DejaVu Sans, sans-serif" font-size="12" fill="#6b7a93" font-weight="400" text-anchor="end">9 986 000 zł</text><rect x="1168" y="460" width="60" height="24" rx="12" fill="#22304a"/><text x="1198" y="476" font-family="DejaVu Sans, sans-serif" font-size="12" fill="#7ea6e6" font-weight="700" text-anchor="middle">−11%</text><rect x="628" y="498" width="608" height="52" rx="6" fill="#161f30"/><rect x="636" y="502" width="68.35000000000001" height="21" rx="10.5" fill="#2f5396"/><circle cx="648" cy="512.5" r="3.5" fill="#fff" opacity="0.9"/><text x="656" y="516.46" font-family="DejaVu Sans, sans-serif" font-size="11" fill="#f3f6fb" font-weight="600" text-anchor="start">Gliwice</text><text x="636" y="540" font-family="DejaVu Sans, sans-serif" font-size="12.5" fill="#e7ecf5" font-weight="600" text-anchor="start">Kościuszki 8/2</text><text x="1044" y="528" font-family="DejaVu Sans, sans-serif" font-size="12.5" fill="#e7ecf5" font-weight="700" text-anchor="end">198 000 zł</text><text x="1134" y="528" font-family="DejaVu Sans, sans-serif" font-size="12" fill="#6b7a93" font-weight="400" text-anchor="end">220 000 zł</text><rect x="1168" y="512" width="60" height="24" rx="12" fill="#22304a"/><text x="1198" y="528" font-family="DejaVu Sans, sans-serif" font-size="12" fill="#7ea6e6" font-weight="700" text-anchor="middle">−10%</text><rect x="636" y="554" width="62.300000000000004" height="21" rx="10.5" fill="#63408f"/><circle cx="648" cy="564.5" r="3.5" fill="#fff" opacity="0.9"/><text x="656" y="568.46" font-family="DejaVu Sans, sans-serif" font-size="11" fill="#f3f6fb" font-weight="600" text-anchor="start">Rybnik</text><text x="636" y="592" font-family="DejaVu Sans, sans-serif" font-size="12.5" fill="#e7ecf5" font-weight="600" text-anchor="start">Zgrzebnioka 7B/6</text><text x="1044" y="580" font-family="DejaVu Sans, sans-serif" font-size="12.5" fill="#e7ecf5" font-weight="700" text-anchor="end">180 000 zł</text><text x="1134" y="580" font-family="DejaVu Sans, sans-serif" font-size="12" fill="#6b7a93" font-weight="400" text-anchor="end">198 000 zł</text><rect x="1168" y="564" width="60" height="24" rx="12" fill="#22304a"/><text x="1198" y="580" font-family="DejaVu Sans, sans-serif" font-size="12" fill="#7ea6e6" font-weight="700" text-anchor="middle">−9%</text><rect x="628" y="602" width="608" height="52" rx="6" fill="#161f30"/><rect x="636" y="606" width="74.4" height="21" rx="10.5" fill="#9c3030"/><circle cx="648" cy="616.5" r="3.5" fill="#fff" opacity="0.9"/><text x="656" y="620.46" font-family="DejaVu Sans, sans-serif" font-size="11" fill="#f3f6fb" font-weight="600" text-anchor="start">Katowice</text><text x="636" y="644" font-family="DejaVu Sans, sans-serif" font-size="12.5" fill="#e7ecf5" font-weight="600" text-anchor="start">Warszawska 40/2</text><text x="1044" y="632" font-family="DejaVu Sans, sans-serif" font-size="12.5" fill="#e7ecf5" font-weight="700" text-anchor="end">266 000 zł</text><text x="1134" y="632" font-family="DejaVu Sans, sans-serif" font-size="12" fill="#6b7a93" font-weight="400" text-anchor="end">285 000 zł</text><rect x="1168" y="616" width="60" height="24" rx="12" fill="#22304a"/><text x="1198" y="632" font-family="DejaVu Sans, sans-serif" font-size="12" fill="#7ea6e6" font-weight="700" text-anchor="middle">−7%</text><rect x="636" y="658" width="80.45" height="21" rx="10.5" fill="#246798"/><circle cx="648" cy="668.5" r="3.5" fill="#fff" opacity="0.9"/><text x="656" y="672.46" font-family="DejaVu Sans, sans-serif" font-size="11" fill="#f3f6fb" font-weight="600" text-anchor="start">Mysłowice</text><text x="636" y="696" font-family="DejaVu Sans, sans-serif" font-size="12.5" fill="#e7ecf5" font-weight="600" text-anchor="start">Powstańców 9/3</text><text x="1044" y="684" font-family="DejaVu Sans, sans-serif" font-size="12.5" fill="#e7ecf5" font-weight="700" text-anchor="end">198 500 zł</text><text x="1134" y="684" font-family="DejaVu Sans, sans-serif" font-size="12" fill="#6b7a93" font-weight="400" text-anchor="end">209 000 zł</text><rect x="1168" y="668" width="60" height="24" rx="12" fill="#22304a"/><text x="1198" y="684" font-family="DejaVu Sans, sans-serif" font-size="12" fill="#7ea6e6" font-weight="700" text-anchor="middle">−5%</text><text x="36" y="778" font-family="DejaVu Sans, sans-serif" font-size="11.5" fill="#6b7a93" font-weight="400" text-anchor="start">przetargimiejskie.pl/raporty · dane z publicznych BIP-ów · aktualizacja codziennie</text></svg>